# File created by Blade
# Date/Time:  Wed Jan 21 17:21:31 2015
# Frame Rate: 120.000 fps
#------------------------------------------------------
:FULLY-SPECIFIED
:DEGREES
437
root 20.836134 17.811782 -23.707525 -153.376838 13.537734 -202.951776
Spine 49.721603 16.858393 -20.591176
Head 17.306435 -14.931671 6.881200
LeftShoulder 26.127597 -39.239741 -2.943689
LeftArm 34.590112 43.680146 -41.079527
LeftForeArm -27.985564 0.000000 13.543505
LeftHand -4.713012 -0.000000 -3.934144
LeftHandThumb1 -26.253704 0.000000 33.147579
RightShoulder 12.593507 -4.599381 -1.905543
RightArm 49.696800 8.424803 51.586797
RightForeArm -4.427365 0.000000 19.302604
RightHand -8.171563 -0.000000 -14.280902
RightHandThumb1 -24.326973 -0.000000 -32.862282
LeftUpLeg -111.595658 -5.296869 -35.883600
LeftLeg 106.152088 -0.000000 -0.000000
LeftFoot -40.204283 20.975582 -9.212065
LeftToeBase 24.820383 -0.000000 -0.000000
RightUpLeg 6.234312 -7.245414 -11.884271
RightLeg 63.196952 -0.000000 -0.000000
RightFoot -42.230556 -21.501812 25.011803
RightToeBase -12.692880 -0.000000 0.000000
438
root 20.846173 17.775891 -23.742561 -153.436319 13.746167 -202.886183
Spine 49.558487 17.047277 -20.721144
Head 17.434199 -14.710899 6.753690
LeftShoulder 25.928573 -39.070046 -2.968201
LeftArm 34.646402 43.813939 -40.822650
LeftForeArm -27.801970 -0.000000 13.807814
LeftHand -4.737099 -0.000000 -3.789336
LeftHandThumb1 -26.253704 0.000000 33.147579
RightShoulder 12.632772 -4.623491 -1.886385
RightArm 49.663839 8.241789 51.632832
RightForeArm -4.394485 -0.000000 19.274228
RightHand -8.121815 0.000000 -14.315828
RightHandThumb1 -24.326973 -0.000000 -32.862282
LeftUpLeg -111.724413 -5.128050 -35.809781
LeftLeg 106.388848 -0.000000 -0.000000
LeftFoot -40.398413 21.019292 -9.257742
LeftToeBase 24.804102 -0.000000 -0.000000
RightUpLeg 6.591645 -7.228060 -12.027101
RightLeg 63.044798 -0.000000 -0.000000
RightFoot -42.114853 -21.403482 24.877701
RightToeBase -10.425221 -0.000000 0.000000
439
root 20.858499 17.733368 -23.772544 -153.464024 13.954685 -202.803390
Spine 49.329975 17.247713 -20.851665
Head 17.568915 -14.480817 6.658845
LeftShoulder 25.725819 -38.868429 -2.962936
LeftArm 34.737601 43.953259 -40.558144
LeftForeArm -27.784472 -0.000000 14.003702
LeftHand -4.759557 -0.000000 -3.649975
LeftHandThumb1 -26.253704 0.000000 33.147579
RightShoulder 12.629264 -4.786703 -1.848819
RightArm 49.776171 8.073072 51.611328
RightForeArm -4.316981 -0.000000 19.183862
RightHand -8.122767 -0.000000 -14.314060
RightHandThumb1 -24.326973 -0.000000 -32.862282
LeftUpLeg -111.919560 -4.961136 -35.745742
LeftLeg 106.649453 -0.000000 -0.000000
LeftFoot -40.551069 21.067397 -9.318764
LeftToeBase 24.732011 -0.000000 -0.000000
RightUpLeg 6.899566 -7.155419 -12.109853
RightLeg 62.966052 -0.000000 -0.000000
RightFoot -42.091280 -21.459249 24.827711
RightToeBase -7.526383 -0.000000 0.000000
440
root 20.865970 17.686857 -23.795849 -153.475667 14.137528 -202.739380
Spine 49.073579 17.400751 -20.979070
Head 17.677900 -14.254914 6.530714
LeftShoulder 25.543216 -38.676123 -2.977659
LeftArm 34.834155 44.102839 -40.321898
LeftForeArm -27.898463 -0.000000 14.109973
LeftHand -4.786894 0.000000 -3.605951
LeftHandThumb1 -26.253704 0.000000 33.147579
RightShoulder 12.602739 -4.942386 -1.838431
RightArm 49.908863 7.845984 51.560810
RightForeArm -4.208179 -0.000000 19.037743
RightHand -8.077228 -0.000000 -14.354637
RightHandThumb1 -24.326973 -0.000000 -32.862282
LeftUpLeg -112.126623 -4.870150 -35.656141
LeftLeg 106.891811 -0.000000 -0.000000
LeftFoot -40.711307 21.149700 -9.433180
LeftToeBase 24.651800 -0.000000 -0.000000
RightUpLeg 7.163468 -7.095500 -12.208314
RightLeg 62.976150 -0.000000 -0.000000
RightFoot -42.000018 -21.774028 24.638913
RightToeBase -4.912180 -0.000000 0.000000
441
root 20.870014 17.635266 -23.817708 -153.516197 14.328568 -202.714694
Spine 48.803030 17.521769 -21.176576
Head 17.765725 -13.964338 6.393620
LeftShoulder 25.346984 -38.528705 -2.971253
LeftArm 34.858149 44.294123 -40.154108
LeftForeArm -28.001135 -0.000000 14.173105
LeftHand -4.720988 -0.000000 -3.665492
LeftHandThumb1 -26.253704 0.000000 33.147579
RightShoulder 12.699243 -4.835064 -1.899755
RightArm 49.729241 7.555909 51.710547
RightForeArm -4.223855 -0.000000 18.983255
RightHand -8.061780 -0.000000 -14.381688
RightHandThumb1 -24.326973 -0.000000 -32.862282
LeftUpLeg -112.330396 -4.782730 -35.599139
LeftLeg 107.158875 -0.000000 -0.000000
LeftFoot -40.851440 21.210232 -9.551014
LeftToeBase 24.595262 -0.000000 -0.000000
RightUpLeg 7.415084 -7.066991 -12.382249
RightLeg 63.123243 -0.000000 -0.000000
RightFoot -41.880749 -21.764820 24.559991
RightToeBase -3.128243 -0.000000 0.000000
442
root 20.877871 17.577799 -23.832244 -153.514297 14.544739 -202.632555
Spine 48.465313 17.714381 -21.329756
Head 17.858957 -13.721085 6.301087
LeftShoulder 25.163590 -38.317437 -2.933324
LeftArm 34.986168 44.477333 -39.933115
LeftForeArm -27.953039 -0.000000 14.233998
LeftHand -4.845781 -0.000000 -3.319554
LeftHandThumb1 -26.253704 0.000000 33.147579
RightShoulder 12.653983 -4.904185 -1.868378
RightArm 49.786964 7.248804 51.679144
RightForeArm -4.104730 -0.000000 18.829415
RightHand -8.011591 -0.000000 -14.380413
RightHandThumb1 -24.326973 -0.000000 -32.862282
LeftUpLeg -112.607786 -4.678395 -35.493679
LeftLeg 107.436133 -0.000000 -0.000000
LeftFoot -41.014158 21.297350 -9.650479
LeftToeBase 24.612520 -0.000000 -0.000000
RightUpLeg 7.573248 -6.931216 -12.460434
RightLeg 63.325944 -0.000000 -0.000000
RightFoot -41.875233 -22.131897 24.434468
RightToeBase -1.337684 -0.000000 0.000000
443
root 20.878970 17.509502 -23.839231 -153.454453 14.717720 -202.609029
Spine 47.990266 17.583660 -21.699223
Head 17.936362 -13.169528 5.983337
LeftShoulder 24.585882 -38.213726 -2.762904
LeftArm 35.051119 44.835487 -39.723369
LeftForeArm -28.071818 0.000000 14.399183
LeftHand -4.970535 -0.000000 -3.175089
LeftHandThumb1 -26.253704 0.000000 33.147579
RightShoulder 13.259441 -3.736398 -2.210866
RightArm 48.280942 6.652473 52.620408
RightForeArm -4.566621 -0.000000 19.342215
RightHand -8.136971 0.000000 -14.610753
RightHandThumb1 -24.326973 -0.000000 -32.862282
LeftUpLeg -112.939756 -4.708695 -35.392906
LeftLeg 107.715567 -0.000000 -0.000000
LeftFoot -41.155621 21.419715 -9.763736
LeftToeBase 24.703896 -0.000000 -0.000000
RightUpLeg 7.636567 -6.878400 -12.594848
RightLeg 63.662168 -0.000000 -0.000000
RightFoot -41.868168 -22.501204 24.484017
RightToeBase 0.386258 -0.000000 -0.000000
444
root 20.876236 17.447738 -23.843649 -153.560806 14.882764 -202.598477
Spine 47.768815 17.697352 -21.832623
Head 17.946340 -12.913584 5.832667
LeftShoulder 24.439041 -38.032431 -2.710896
LeftArm 35.178613 45.071882 -39.492797
LeftForeArm -28.146667 -0.000000 14.499056
LeftHand -5.037422 -0.000000 -3.002539
LeftHandThumb1 -26.253704 0.000000 33.147579
RightShoulder 13.227531 -3.823764 -2.276411
RightArm 48.367704 6.417962 52.695649
RightForeArm -4.538494 -0.000000 19.228973
RightHand -8.143398 0.000000 -14.632104
RightHandThumb1 -24.326973 -0.000000 -32.862282
LeftUpLeg -113.110593 -4.667901 -35.293446
LeftLeg 107.943405 -0.000000 -0.000000
LeftFoot -41.307126 21.620496 -9.893183
LeftToeBase 24.666442 -0.000000 -0.000000
RightUpLeg 7.792295 -6.792567 -12.768348
RightLeg 64.074148 -0.000000 -0.000000
RightFoot -41.859466 -23.035047 24.641805
RightToeBase 2.090598 -0.000000 -0.000000
